<?xml version="1.0" standalone="no"?>
<!DOCTYPE svg PUBLIC "-//W3C//DTD SVG 1.1//EN" "http://www.w3.org/Graphics/SVG/1.1/DTD/svg11.dtd" >
<svg xmlns="http://www.w3.org/2000/svg">
<metadata>
This is a custom SVG webfont generated by Font Squirrel.
Copyright   : Copyright 1990 as an unpublished work by Bitstream Inc  All rights reserved  Confidential
</metadata>
<defs>
<font id="ITCAvantGardeGothicBookRg" horiz-adv-x="1157" >
<font-face units-per-em="2048" ascent="1638" descent="-410" />
<missing-glyph horiz-adv-x="577" />
<glyph unicode=" "  horiz-adv-x="577" />
<glyph unicode="&#x09;" horiz-adv-x="577" />
<glyph unicode="&#xa0;" horiz-adv-x="577" />
<glyph unicode="!" horiz-adv-x="587" d="M223 0v266h142v-266h-142zM223 379v1077h142v-1077h-142z" />
<glyph unicode="&#x22;" horiz-adv-x="569" d="M98 881v553h101v-553h-101zM371 881v553h102v-553h-102z" />
<glyph unicode="#" horiz-adv-x="1574" d="M117 479l39 107h325l101 278h-353l35 107h354l173 483h127l-168 -483h264l172 483h127l-170 -483h315l-37 -107h-317l-98 -278h340l-37 -107h-340l-170 -479h-129l172 479h-269l-172 -479h-127l170 479h-327zM612 586h267l96 278h-266z" />
<glyph unicode="$" d="M152 432h139v-16q0 -139 72.5 -213t211.5 -74q133 0 210 72.5t77 195.5q0 57 -16.5 100.5t-35.5 70t-67.5 52t-82 38t-107.5 36.5q-20 6 -31 11q-176 57 -255 135t-79 227q0 145 89.5 251.5t230.5 125.5v213h143v-213q147 -16 231.5 -111.5t92.5 -253.5h-144v4 q0 109 -66.5 175.5t-176.5 66.5q-121 0 -189.5 -68.5t-68.5 -181.5q0 -45 15 -81t31.5 -58.5t61.5 -46t69.5 -33.5t95.5 -35l102 -35q160 -59 231.5 -142t71.5 -224q0 -172 -98.5 -287t-258.5 -129v-246h-143v246q-160 16 -258 135t-98 293z" />
<glyph unicode="%" horiz-adv-x="1796" d="M90 1126q0 150 104.5 254.5t254 104.5t255 -104.5t105.5 -254t-104.5 -254t-255.5 -104.5q-150 0 -254.5 103t-104.5 255zM219 1124.5q0 -94.5 66.5 -161t161 -66.5t160 66.5t65.5 161t-65.5 160t-160 65.5t-161 -65.5t-66.5 -160zM451 -29l778 1514h117l-779 -1514h-116 zM987 329.5q0 149.5 104.5 254t254 104.5t254 -104.5t104.5 -254t-104.5 -254t-254 -104.5t-254 104.5t-104.5 254zM1114 330q0 -94 66.5 -161t161 -67t161 67t66.5 161t-66.5 159.5t-161 65.5t-161 -65.5t-66.5 -159.5z" />
<glyph unicode="&#x26;" horiz-adv-x="1421" d="M129 410q0 129 73.5 242.5t203.5 172.5q-92 82 -130 150.5t-38 165.5q0 139 101 240.5t255 101.5q137 0 236.5 -102.5t99.5 -239.5q0 -229 -279 -353l295 -272l172 453h156l-219 -555l325 -299l-90 -107l-297 268q-68 -150 -182.5 -227.5t-257.5 -77.5q-174 0 -299 127.5 t-125 311.5zM281 410q0 -133 79.5 -214t200.5 -81q184 0 328 256l-387 360q-221 -108 -221 -321zM387 1139q0 -72 40 -129.5t128 -126.5q225 88 225 264q0 86 -56 144.5t-136 58.5q-86 0 -143.5 -56.5t-57.5 -154.5z" />
<glyph unicode="'" horiz-adv-x="294" d="M98 881v553h101v-553h-101z" />
<glyph unicode="(" horiz-adv-x="540" d="M125 168v706q0 446 307 611v-162q-102 -82 -134 -188.5t-32 -284.5v-657q0 -178 32 -285t134 -189v-161q-307 164 -307 610z" />
<glyph unicode=")" horiz-adv-x="540" d="M109 -281q102 82 133.5 188.5t31.5 285.5v657q0 178 -31.5 284.5t-133.5 188.5v162q307 -164 307 -611v-706q0 -446 -307 -610v161z" />
<glyph unicode="*" horiz-adv-x="1024" d="M125 1128l37 119l291 -96v305h114v-305l289 96l41 -119l-301 -86l205 -251l-105 -74l-186 264l-182 -264l-107 74l201 251z" />
<glyph unicode="+" horiz-adv-x="1705" d="M254 561v98h551v562h98v-562h549v-98h-549v-561h-98v561h-551z" />
<glyph unicode="," horiz-adv-x="577" d="M104 -162l156 428h143l-155 -428h-144z" />
<glyph unicode="-" horiz-adv-x="659" d="M94 483v133h469v-133h-469z" />
<glyph unicode="." horiz-adv-x="577" d="M217 0v266h143v-266h-143z" />
<glyph unicode="/" horiz-adv-x="569" d="M-49 -190l498 1646h120l-497 -1646h-121z" />
<glyph unicode="0" d="M86 944q0 119 15.5 194.5t70.5 151.5q147 197 406 197q223 0 358 -139.5t135 -395.5v-446q0 -219 -80 -332q-145 -203 -413 -203q-254 0 -408 197q-84 109 -84 344v432zM227 481q0 -186 95.5 -284.5t255.5 -98.5q162 0 256 98.5t94 280.5v502q0 182 -95.5 280.5 t-255 98.5t-255 -99.5t-95.5 -285.5v-492z" />
<glyph unicode="1" d="M270 1331v125h406v-1456h-152v1331h-254z" />
<glyph unicode="2" d="M133 969v22q0 221 130 358.5t333 137.5q182 0 313 -132t131 -331q0 -217 -227 -430l-491 -453h714v-141h-903v141l516 490q133 127 192.5 213t59.5 190q0 135 -88 228.5t-229.5 93.5t-226.5 -94.5t-85 -251.5q0 -6 1 -20.5t1 -20.5h-141z" />
<glyph unicode="3" d="M109 442h145v-12q0 -145 90 -239.5t221 -94.5q141 0 234.5 93.5t93.5 242.5q0 166 -97.5 253t-287.5 87q-45 0 -68 -2v121q23 -2 64 -2q289 0 289 237q0 102 -62.5 168t-155.5 66q-106 0 -167.5 -64.5t-63.5 -181.5h-133q8 172 108.5 271.5t262.5 99.5q152 0 255 -107.5 t103 -251.5q0 -168 -141 -270q240 -127 239 -410q0 -199 -131 -337t-334 -138q-213 0 -337.5 125t-126.5 346z" />
<glyph unicode="4" d="M88 281v127l660 1048h163v-1048h158v-127h-158v-281h-141v281h-682zM238 408h536l6 880z" />
<glyph unicode="5" d="M84 442h145q8 -145 111.5 -242.5t239.5 -97.5q147 0 248.5 110t101.5 273.5t-101.5 265t-265.5 101.5q-186 0 -301 -168l-110 51l129 721h657v-143h-535l-73 -406q121 86 258 86q215 0 350 -145.5t135 -366.5q0 -213 -145.5 -361.5t-352.5 -148.5q-195 0 -335 131 t-156 340z" />
<glyph unicode="6" d="M84 451q0 31 3 60.5t11 59.5l15 54q6 23 23.5 56.5t24.5 50t29 53.5l30 51q7 12 36 55t35 53l330 512h178l-340 -526q94 23 157 22q199 0 328 -138t129 -347q0 -213 -140 -354.5t-358 -141.5q-215 0 -353 140.5t-138 339.5zM233 465q0 -156 104.5 -261.5t250.5 -105.5 q139 0 237.5 101.5t98.5 263.5q0 160 -96.5 261t-241.5 101q-152 0 -252.5 -104t-100.5 -256z" />
<glyph unicode="7" d="M205 1313v143h803v-131l-582 -1325h-160l576 1313h-637z" />
<glyph unicode="8" d="M113 434q0 125 52 214t169 165q-156 102 -156 287q0 154 115 269.5t282 115.5q174 0 289 -112.5t115 -262.5q0 -195 -162 -297q227 -127 227 -369q0 -205 -131 -339t-344 -134q-193 0 -324.5 135t-131.5 328zM258 418q0 -141 92 -231.5t219 -90.5q143 0 235.5 94.5 t92.5 233.5q0 145 -87 234.5t-230 89.5q-145 0 -233.5 -87t-88.5 -243zM322 1122q0 -109 69.5 -176t177.5 -67q131 0 201 62.5t70 176.5q0 104 -73 171t-185 67q-111 0 -185.5 -67t-74.5 -167z" />
<glyph unicode="9" d="M84 991q0 213 139 354.5t356.5 141.5t355.5 -140.5t138 -338.5q0 -31 -3 -60.5t-11 -60.5l-15 -53q-6 -23 -23 -57l-24.5 -50t-29.5 -54l-30 -50q-7 -12 -36 -55.5t-35 -53.5l-329 -514h-179l340 528q-94 -23 -157 -22q-199 0 -328 138t-129 347zM233 995 q0 -160 96.5 -261t241.5 -101q152 0 252.5 104.5t100.5 255.5q0 156 -104.5 260.5t-250.5 104.5q-139 0 -237.5 -100.5t-98.5 -262.5z" />
<glyph unicode=":" horiz-adv-x="587" d="M223 0v266h142v-266h-142zM223 834v266h142v-266h-142z" />
<glyph unicode=";" horiz-adv-x="587" d="M104 -162l156 428h143l-155 -428h-144zM223 834v266h142v-266h-142z" />
<glyph unicode="&#x3c;" horiz-adv-x="1705" d="M264 569v82l1178 484v-109l-1022 -416l1022 -413v-109z" />
<glyph unicode="=" horiz-adv-x="1705" d="M254 375v98h1198v-98h-1198zM254 748v98h1198v-98h-1198z" />
<glyph unicode="&#x3e;" horiz-adv-x="1705" d="M264 88v109l1022 413l-1022 416v109l1178 -484v-82z" />
<glyph unicode="?" horiz-adv-x="948" d="M45 1012q2 217 123 345t313 128q182 0 295 -120t113 -310q0 -37 -5 -72t-10.5 -58.5t-21.5 -51t-22.5 -41t-30.5 -38.5l-31 -32q-6 -6 -36 -33t-34 -31q-78 -72 -113.5 -139t-37.5 -162h-144q0 188 154 355l63 61q46 45 63 66.5t35.5 69.5t18.5 108q0 131 -71.5 204.5 t-192.5 73.5q-129 0 -201.5 -83t-78.5 -240h-148zM403 0v266h144v-266h-144z" />
<glyph unicode="@" horiz-adv-x="2048" d="M117 537q0 418 338 696q268 221 659 221q338 0 557 -168q260 -201 260 -508q0 -350 -243 -542q-141 -111 -310 -111q-193 0 -192 151q0 4 1 13.5t1 15.5q-104 -180 -295 -180q-154 0 -233.5 84t-79.5 244q0 231 136 388.5t328 157.5q188 0 254 -163l60 125h94l-139 -562 q-16 -72 -17 -92q0 -43 28 -67.5t79 -24.5q109 0 211 82q96 76 150.5 204t54.5 283q0 250 -197 415t-510 165q-350 0 -582 -199q-297 -254 -297 -653q0 -340 244 -537q213 -174 545 -174q352 0 635 193l39 -55q-295 -221 -654 -222q-383 0 -622 185q-303 232 -303 635z M702 444q0 -113 55.5 -174t151.5 -61q106 0 189.5 70.5t111.5 189.5l62 248q-18 94 -75.5 146t-139.5 52q-156 0 -255.5 -135t-99.5 -336z" />
<glyph unicode="A" horiz-adv-x="1222" d="M-51 0l565 1456h172l563 -1456h-153l-174 457h-648l-174 -457h-151zM324 588h548l-276 731z" />
<glyph unicode="B" horiz-adv-x="1042" d="M135 0v1456h271q244 0 361.5 -91t117.5 -294q0 -199 -156 -287q236 -98 236 -354q0 -227 -125 -328.5t-383 -101.5h-322zM272 1317v-490h86q195 0 288 52.5t93 197.5q0 127 -85 183.5t-259 56.5h-123zM272 139h201q174 0 260 66.5t86 206.5q0 276 -346 276h-201v-549z " />
<glyph unicode="C" horiz-adv-x="1540" d="M61 737q0 313 228 537q211 211 514 211q217 0 391 -105.5t274 -300.5h-172q-193 264 -495 264q-244 0 -416 -181t-172 -427q0 -266 173 -446t415 -180q305 0 485 251h170q-100 -186 -268 -287.5t-377 -101.5q-324 0 -537 219t-213 547z" />
<glyph unicode="D" horiz-adv-x="1366" d="M135 0v1456h414q324 0 493 -143q125 -104 194 -256t69 -326q0 -195 -77 -352.5t-214 -257.5q-111 -80 -226.5 -100.5t-302.5 -20.5h-350zM276 137h297q281 0 429.5 158t148.5 440q0 297 -197 467q-84 72 -177 93.5t-238 21.5h-263v-1180z" />
<glyph unicode="E" horiz-adv-x="1028" d="M135 0v1456h756v-143h-612v-510h612v-144h-612v-518h612v-141h-756z" />
<glyph unicode="F" horiz-adv-x="991" d="M135 0v1456h719v-143h-578v-510h578v-144h-578v-659h-141z" />
<glyph unicode="G" horiz-adv-x="1611" d="M61 737q0 313 228 537q213 211 530 211q213 0 381 -102.5t270 -292.5h-176q-201 256 -483 256q-254 0 -426 -181.5t-172 -429.5q0 -270 174 -448t426 -178q199 0 357.5 126.5t207.5 333.5h-735v129h905q-18 -319 -230 -523t-517 -204q-313 0 -526.5 220t-213.5 546z" />
<glyph unicode="H" horiz-adv-x="1251" d="M135 0v1456h144v-653h692v653h143v-1456h-143v664h-692v-664h-144z" />
<glyph unicode="I" horiz-adv-x="411" d="M133 0v1456h143v-1456h-143z" />
<glyph unicode="J" horiz-adv-x="915" d="M27 354h143q6 -111 70.5 -176t156.5 -65q152 0 198 100t46 322v921h143v-950v-31q0 -225 -59 -325q-51 -86 -139 -133.5t-197 -47.5q-162 0 -262 104.5t-100 280.5z" />
<glyph unicode="K" horiz-adv-x="1099" d="M133 0v1456h141v-809l674 809h170l-588 -704l578 -752h-176l-494 645l-164 -196v-449h-141z" />
<glyph unicode="L" horiz-adv-x="843" d="M135 0v1456h144v-1315h512v-141h-656z" />
<glyph unicode="M" horiz-adv-x="1691" d="M143 0v1456h211l504 -1266l502 1266h211v-1456h-137v1286l-512 -1286h-129l-512 1286v-1286h-138z" />
<glyph unicode="N" horiz-adv-x="1366" d="M131 0v1456h172l799 -1282l-17 1282h142v-1456h-172l-799 1284l16 -1284h-141z" />
<glyph unicode="O" horiz-adv-x="1611" d="M61 737q0 313 228 537q215 211 514 211q305 0 522 -213q223 -219 223 -535q0 -309 -192 -520q-223 -246 -555 -246q-313 0 -526.5 220t-213.5 546zM211 735q0 -268 174 -447t426 -179q248 0 419 181t171 449q0 246 -175 426.5t-425 180.5q-207 0 -367 -136 q-102 -88 -162.5 -215t-60.5 -260z" />
<glyph unicode="P" horiz-adv-x="1034" d="M119 0v1456h309q246 0 346 -59q199 -119 199 -359q0 -111 -46 -204t-130 -148q-111 -74 -344 -74h-191v-612h-143zM262 758h211q174 0 259 66.5t85 207.5q0 152 -88 216.5t-268 64.5h-199v-555z" />
<glyph unicode="Q" horiz-adv-x="1611" d="M61 737q0 313 228 537q215 211 514 211q317 0 531 -216t214 -556q0 -317 -235 -539q88 -57 233 -57h19v-127q-57 -4 -72 -4q-147 0 -293 102q-178 -117 -397 -117q-311 0 -526.5 220t-215.5 546zM211 743q0 -92 25 -188q152 72 311 72q186 0 331.5 -86t323.5 -277 q199 199 199 475q0 246 -175 426.5t-425 180.5q-244 0 -417 -182.5t-173 -420.5zM285 426q84 -152 225 -236t301 -84q131 0 274 72q-162 170 -276.5 240.5t-276.5 70.5q-110 0 -247 -63z" />
<glyph unicode="R" horiz-adv-x="1138" d="M115 0v1456h391q229 0 350 -84q88 -61 138 -162.5t50 -216.5q0 -168 -100 -290.5t-252 -133.5l352 -569h-170l-432 702h138q139 0 225 81t86 208q0 156 -105 250q-37 35 -92 51.5t-97 18.5t-130 2h-211v-1313h-141z" />
<glyph unicode="S" horiz-adv-x="952" d="M57 416h140q2 -135 75.5 -215t190.5 -80q129 0 202.5 80t73.5 215q0 72 -17 120t-71.5 83.5t-87.5 49t-131 46.5l-35 12q-158 53 -229.5 137t-71.5 223q0 172 107.5 284t281.5 112q162 0 259.5 -100.5t107.5 -284.5h-135q-10 119 -70.5 183.5t-161.5 64.5 q-109 0 -177 -71t-68 -179.5t86 -173.5q31 -23 74.5 -40.5t110.5 -39t105 -35.5q139 -55 203 -140t64 -225q0 -211 -115 -341t-307 -130q-176 0 -289 123t-115 322z" />
<glyph unicode="T" horiz-adv-x="749" d="M12 1313v143h725v-143h-291v-1313h-143v1313h-291z" />
<glyph unicode="U" d="M113 530v926h143v-891v-30q0 -176 37 -254q39 -82 114.5 -129.5t170.5 -47.5q168 0 245.5 115t77.5 346v891h141v-926q0 -561 -454 -561q-246 0 -360.5 137t-114.5 424z" />
<glyph unicode="V" horiz-adv-x="1138" d="M-41 1456h143l461 -1241l463 1241h143l-548 -1456h-113z" />
<glyph unicode="W" horiz-adv-x="1665" d="M-31 1456h142l362 -1194l295 1194h131l293 -1194l364 1194h140l-451 -1456h-119l-292 1188l-293 -1188h-119z" />
<glyph unicode="X" horiz-adv-x="1165" d="M-6 0l506 733l-494 723h178l400 -604l399 604h176l-493 -723l505 -733h-180l-407 618l-414 -618h-176z" />
<glyph unicode="Y" horiz-adv-x="980" d="M-49 1456h164l372 -756l377 756h160l-467 -921v-535h-141v537z" />
<glyph unicode="Z" horiz-adv-x="937" d="M39 0v137l680 1176h-639v143h805v-137l-682 -1178h696v-141h-860z" />
<glyph unicode="[" horiz-adv-x="540" d="M133 -410v1866h332v-119h-191v-1630h191v-117h-332z" />
<glyph unicode="\" horiz-adv-x="569" d="M0 1456h119l499 -1646h-120z" />
<glyph unicode="]" horiz-adv-x="540" d="M76 -293h190v1630h-190v119h332v-1866h-332v117z" />
<glyph unicode="^" horiz-adv-x="2048" d="M422 901l532 557h140l530 -557h-143l-457 455l-459 -455h-143z" />
<glyph unicode="_" horiz-adv-x="1024" d="M0 -383h1024v-100h-1024v100z" />
<glyph unicode="`" horiz-adv-x="1024" d="M276 1597h152l209 -350h-92z" />
<glyph unicode="a" horiz-adv-x="1290" d="M57 545q0 246 163 412.5t413 166.5q262 0 409 -200v176h138v-1100h-138v174q-66 -94 -178 -148.5t-243 -54.5q-244 0 -404 167t-160 407zM203 539q0 -186 126 -311.5t296 -125.5q164 0 290.5 131.5t126.5 323.5q0 176 -125.5 306t-287.5 130q-174 0 -300 -128.5 t-126 -325.5z" />
<glyph unicode="b" horiz-adv-x="1290" d="M109 0v1456h139v-328v-131v-82q176 209 432 209q233 0 393 -168t160 -405q0 -246 -163 -413t-413 -167q-242 0 -409 195v-166h-139zM248 539q0 -176 125 -306.5t286 -130.5q174 0 300 129t126 326q0 186 -125.5 311t-295.5 125t-293 -130.5t-123 -323.5z" />
<glyph unicode="c" horiz-adv-x="1241" d="M57 547q0 244 167 413.5t405 169.5q178 0 315 -96t205 -272h-156q-129 236 -381 235q-168 0 -287.5 -128t-119.5 -320q0 -190 118.5 -317.5t295.5 -127.5q125 0 224 62.5t150 177.5h156q-63 -180 -200.5 -277.5t-323.5 -97.5q-242 0 -405 171t-163 407z" />
<glyph unicode="d" horiz-adv-x="1290" d="M57 551q0 240 160 406.5t404 166.5q266 0 417 -198v245v285h142v-1456h-142v166q-74 -92 -184.5 -143.5t-232.5 -51.5q-238 0 -401 168t-163 412zM203 557q0 -197 126 -326t300 -129q162 0 287.5 130t125.5 307q0 193 -127 323.5t-290 130.5q-170 0 -296 -125t-126 -311z " />
<glyph unicode="e" horiz-adv-x="1241" d="M53 551q0 250 161 414.5t417 164.5q246 0 403.5 -169.5t157.5 -444.5v-10h-993q14 -182 132 -292t290 -110q123 0 222 63.5t154 180.5h160q-76 -184 -214 -281.5t-318 -97.5q-244 0 -408 172t-164 410zM203 625h833q-80 373 -426 372q-160 0 -270 -100t-137 -272z" />
<glyph unicode="f" horiz-adv-x="563" d="M25 977v123h141v30q0 174 88 258.5t272 84.5h13v-127q-127 -2 -179.5 -50.5t-52.5 -165.5v-30h232v-123h-230v-977h-137v977h-147z" />
<glyph unicode="g" horiz-adv-x="1280" d="M53 553q0 244 163 408.5t400 164.5q268 0 420 -206v180h138v-918q0 -293 -146.5 -452.5t-396.5 -159.5q-186 0 -320.5 92t-173.5 248h164q33 -96 117 -149.5t203 -53.5q184 0 299.5 123t115.5 336v29q-160 -219 -407 -220q-250 0 -413 166t-163 412zM203 559 q0 -199 125 -326t293 -127q162 0 287.5 129.5t125.5 307.5q0 190 -124 322t-289 132q-168 0 -293 -125t-125 -313z" />
<glyph unicode="h" horiz-adv-x="1142" d="M111 0v1456h139v-485q123 152 338 151q240 0 342 -137t102 -426v-559h-139v561q0 223 -65.5 324.5t-247.5 101.5q-197 0 -283 -149q-23 -39 -33 -91.5t-12 -91.5t-2 -120v-535h-139z" />
<glyph unicode="i" horiz-adv-x="370" d="M115 0v1100h141v-1100h-141zM115 1229v227h141v-227h-141z" />
<glyph unicode="j" horiz-adv-x="370" d="M-20 -223q94 0 114.5 38t20.5 160v1125h141v-1104q0 -186 -51 -268t-195 -82h-30v131zM115 1229v227h141v-227h-141z" />
<glyph unicode="k" horiz-adv-x="847" d="M115 0v1456h141v-866l397 510h162l-399 -510l485 -590h-178l-467 573v-573h-141z" />
<glyph unicode="l" horiz-adv-x="370" d="M115 0v1456h141v-1456h-141z" />
<glyph unicode="m" horiz-adv-x="1906" d="M111 0v1100h139v-125q127 147 342 147q125 0 228.5 -53t156.5 -141q137 195 389 194q229 0 328.5 -138t99.5 -429v-555h-135v584q0 209 -68.5 306t-238.5 97q-193 0 -279 -149q-23 -39 -33 -91.5t-12 -91.5t-2 -120v-535h-133v616q0 188 -76 279.5t-237 91.5 q-197 0 -283 -149q-23 -39 -33 -91.5t-12 -91.5t-2 -120v-535h-139z" />
<glyph unicode="n" horiz-adv-x="1142" d="M113 0v1100h137v-125q129 147 346 147q252 0 365 -174q43 -68 57 -151.5t14 -221.5v-575h-139v616q0 193 -74 282t-239 89q-197 0 -283 -149q-23 -39 -33 -91.5t-12 -91.5t-2 -120v-535h-137z" />
<glyph unicode="o" horiz-adv-x="1241" d="M53 549q0 244 167 415t392 171q242 0 409 -170t167 -402q0 -246 -164 -420t-401 -174q-242 0 -406 172t-164 408zM201 551q0 -190 120.5 -318.5t301.5 -128.5q176 0 296.5 128t120.5 321q0 197 -122.5 321.5t-307.5 124.5q-164 0 -286.5 -126.5t-122.5 -321.5z" />
<glyph unicode="p" horiz-adv-x="1290" d="M109 -356v1456h139v-180q59 92 170.5 148t238.5 56q250 0 413 -166.5t163 -412.5q0 -240 -160 -407t-405 -167q-274 0 -420 203v-76v-164v-290h-139zM248 557q0 -193 126 -324t290 -131q170 0 295.5 125t125.5 312q0 197 -125.5 325.5t-300.5 128.5q-164 0 -287.5 -131 t-123.5 -305z" />
<glyph unicode="q" horiz-adv-x="1290" d="M57 545q0 246 163 412.5t413 166.5q258 0 405 -200v176h142v-1456h-142v299v223q-147 -195 -417 -195q-244 0 -404 167t-160 407zM203 539q0 -186 126 -311.5t296 -125.5q164 0 290.5 131.5t126.5 323.5q0 176 -125.5 306t-287.5 130q-174 0 -300 -128.5t-126 -325.5z " />
<glyph unicode="r" horiz-adv-x="512" d="M111 0v1100h133v-127q100 141 258 143v-153q-139 -12 -193.5 -83t-54.5 -216v-664h-143z" />
<glyph unicode="s" horiz-adv-x="796" d="M43 346h145v-4q0 -104 59.5 -171t145.5 -67q82 0 137.5 51.5t55.5 131.5q0 84 -47 131t-154 86q-156 55 -225.5 116.5t-69.5 198.5q0 129 93 219t227 90q141 0 224 -79.5t89 -223.5h-152q-4 80 -49 122t-121 42q-70 0 -115.5 -47t-45.5 -115q0 -94 82 -143 q39 -25 117.5 -48.5t101.5 -33.5q201 -86 200 -303q0 -141 -99 -234.5t-251 -93.5q-154 0 -249 100.5t-99 274.5z" />
<glyph unicode="t" horiz-adv-x="559" d="M0 958v142h209v356h141v-356h209v-142h-209v-958h-141v958h-209z" />
<glyph unicode="u" horiz-adv-x="1142" d="M109 526v574h139v-584q0 -213 68.5 -312.5t244.5 -99.5q195 0 283 150q23 37 33 89t12 93t2 123v541h141v-1100h-141v119q-123 -147 -334 -148q-248 0 -348 134t-100 421z" />
<glyph unicode="v" horiz-adv-x="976" d="M-16 1100h149l352 -887l355 887h153l-450 -1100h-129z" />
<glyph unicode="w" horiz-adv-x="1421" d="M-6 1100h147l269 -824l252 824h102l252 -824l266 824h150l-371 -1100h-92l-258 838l-254 -838h-92z" />
<glyph unicode="x" horiz-adv-x="847" d="M-31 0l373 571l-328 529h158l256 -416l274 416h162l-356 -527l354 -573h-160l-282 459l-295 -459h-156z" />
<glyph unicode="y" horiz-adv-x="944" d="M-33 1100h162l340 -893l356 893h164l-594 -1456h-151l147 358z" />
<glyph unicode="z" horiz-adv-x="825" d="M20 0v133l574 834h-510v133h666v-152l-562 -807h592v-141h-760z" />
<glyph unicode="{" horiz-adv-x="1024" d="M174 477v109q8 0 23.5 -1t21.5 -1q139 0 195.5 63.5t56.5 216.5v242q0 215 66.5 293t269.5 78h47v-107h-37q-137 0 -180 -53t-43 -201v-242q0 -158 -40 -234.5t-157 -109.5q117 -33 157 -109.5t40 -234.5v-241q0 -147 41 -200.5t174 -53.5q6 0 21.5 1t23.5 1v-107h-47 q-205 0 -270.5 77t-65.5 292v244q0 154 -56.5 217t-195.5 63q-6 0 -21.5 -1t-23.5 -1z" />
<glyph unicode="|" horiz-adv-x="1024" d="M459 -483v2048h108v-2048h-108z" />
<glyph unicode="}" horiz-adv-x="1024" d="M172 -307h39q135 0 178 52t43 200v241q0 158 39 235t158 109q-119 33 -158 110t-39 234v242q0 150 -41 203t-174 53q-6 0 -21.5 -1t-23.5 -1v107h47q203 0 269.5 -78t66.5 -293v-242q0 -154 56.5 -217t195.5 -63q6 0 21.5 1t23.5 1v-109q-8 0 -23.5 1t-21.5 1 q-139 0 -195.5 -63.5t-56.5 -216.5v-244q0 -215 -65.5 -292t-270.5 -77h-47v107z" />
<glyph unicode="~" horiz-adv-x="1705" d="M178 471v113q211 145 387 145q102 0 289 -67q8 -2 41 -14.5t43 -15.5t38 -12.5t43 -12.5l39 -8q24 -5 44 -7t41 -2q164 0 387 160v-113q-201 -143 -387 -143q-23 0 -45.5 2t-46 6t-40 8t-42.5 12l-37 12q-10 3 -41 14t-37 13q-193 70 -289 70q-160 0 -387 -160z" />
<glyph unicode="&#xa1;" horiz-adv-x="587" d="M223 0v1075h142v-1075h-142zM223 1190v266h142v-266h-142z" />
<glyph unicode="&#xa2;" d="M70 723q0 221 130 382t337 193v211h133v-206q350 -41 450 -394h-147q-84 270 -365 271q-162 0 -277.5 -130t-115.5 -327q0 -193 115.5 -323t287.5 -130q127 0 222.5 74t132.5 205h147q-119 -367 -450 -402v-229h-133v232q-205 29 -336 194.5t-131 378.5z" />
<glyph unicode="&#xa3;" d="M68 672v139h145q-41 129 -41 215q0 195 131 326t334 131q172 0 286.5 -98.5t149.5 -280.5h-131q-27 119 -106.5 185.5t-196.5 66.5q-145 0 -236.5 -92.5t-91.5 -233.5q0 -96 56 -219h493v-141h-385q80 -141 80 -291q0 -139 -72 -252q61 -6 115 -6q186 0 277.5 68.5 t91.5 213.5q0 35 -17 127h142q14 -80 14 -118q0 -190 -121 -308q-61 -59 -143 -81.5t-207 -22.5h-514v127h223q80 100 80 238q0 145 -105 307h-251z" />
<glyph unicode="&#xa4;" horiz-adv-x="1241" d="M90 420l205 207q-90 123 -90 258q0 137 90 260l-205 205l66 65l204 -205q119 90 261 90q147 0 262 -90l204 205l66 -65l-205 -205q88 -119 88 -260q0 -139 -88 -258l205 -207l-66 -66l-204 205q-119 -90 -262 -90q-139 0 -261 90l-204 -205zM297 887q0 -133 96 -229.5 t229.5 -96.5t227.5 96.5t94 229.5t-93 227t-228 94q-133 0 -229.5 -95t-96.5 -226z" />
<glyph unicode="&#xa5;" d="M45 1446h162l375 -748l368 748h162l-260 -500h184v-110h-243l-88 -168h331v-111h-389v-557h-141v557h-391v111h334l-87 168h-247v110h188z" />
<glyph unicode="&#xa6;" horiz-adv-x="1024" d="M459 -350v758h108v-758h-108zM459 674v758h108v-758h-108z" />
<glyph unicode="&#xa7;" horiz-adv-x="1024" d="M109 694q0 193 198 297q-104 78 -104 207q0 123 87 205t226 82q145 0 229 -83t84 -231v-24h-129q-2 106 -52 162.5t-144 56.5q-74 0 -118 -45t-44 -119q0 -113 141 -196l203 -121q119 -72 172 -143.5t53 -170.5q0 -178 -194 -280q106 -94 106 -228q0 -125 -93 -203.5 t-232 -78.5q-152 0 -241 86t-89 229q0 6 1 16.5t1 14.5h137v-12q0 -100 51.5 -155.5t143.5 -55.5q84 0 133 44t49 122q0 68 -38 113.5t-124 99.5l-215 133q-198 124 -198 278zM248 729q0 -113 143 -203l248 -157q127 84 127 190q0 66 -37 114t-119 99l-221 137 q-141 -57 -141 -180z" />
<glyph unicode="&#xa8;" horiz-adv-x="1024" d="M256 1313v164h141v-164h-141zM625 1313v164h143v-164h-143z" />
<glyph unicode="&#xa9;" horiz-adv-x="1705" d="M121 723q0 299 219 522q207 211 512 211q307 0 522 -215q211 -211 211 -518t-211 -514q-223 -219 -522 -219t-516 217q-215 215 -215 516zM201 723q0 -266 192.5 -458.5t458.5 -192.5q268 0 467 194q186 182 186 457q0 272 -188 461q-193 193 -465 192.5t-457 -188.5 q-194 -199 -194 -465zM469 727q0 205 108.5 327t282.5 122q135 0 226.5 -72t103.5 -189h-117q-18 80 -75.5 124t-141.5 44q-121 0 -189.5 -94t-68.5 -268q0 -168 69.5 -261t188.5 -93q90 0 151.5 50t77.5 138h115q-10 -125 -108.5 -205t-241.5 -80q-176 0 -278.5 121 t-102.5 336z" />
<glyph unicode="&#xaa;" horiz-adv-x="968" d="M43 1067q0 172 123 289t309 117q197 0 307 -140v123h103v-770h-103v121q-109 -141 -317 -141q-182 0 -302 116.5t-120 284.5zM152 1063q0 -131 95 -218t222 -87q123 0 218 92t95 225q0 125 -95 215t-216 90q-129 0 -224 -90t-95 -227z" />
<glyph unicode="&#xab;" horiz-adv-x="933" d="M115 549l245 321h138l-248 -321l248 -320h-138zM418 549l246 321h137l-246 -321l246 -320h-137z" />
<glyph unicode="&#xac;" horiz-adv-x="1705" d="M254 758v100h1198v-502h-96v402h-1102z" />
<glyph unicode="&#xad;" horiz-adv-x="659" d="M94 483v133h469v-133h-469z" />
<glyph unicode="&#xae;" horiz-adv-x="1705" d="M121 723q0 299 219 522q207 211 512 211q311 0 522 -215q211 -211 211 -518t-211 -514q-223 -219 -522 -219q-303 0 -516 217q-215 215 -215 516zM201 723q0 -266 192.5 -458.5t458.5 -192.5q268 0 467 194q186 180 186 455q0 276 -186 463q-193 193 -467 192 q-266 0 -455 -188q-196 -201 -196 -465zM565 313v844h309q176 0 262.5 -56.5t86.5 -176.5q0 -88 -53.5 -148.5t-145.5 -73.5l188 -389h-145l-178 371h-197v-371h-127zM692 768h158q129 0 185.5 31.5t56.5 115.5t-57.5 120t-184.5 36h-158v-303z" />
<glyph unicode="&#xaf;" horiz-adv-x="1024" d="M256 1346v116h512v-116h-512z" />
<glyph unicode="&#xb0;" horiz-adv-x="673" d="M59 1173.5q0 116.5 82 197.5t197 81t195.5 -82t80.5 -196.5t-80.5 -196.5t-197.5 -82t-197 81t-80 197.5zM129 1173.5q0 -86.5 61.5 -146.5t147.5 -60q88 0 147.5 60t59.5 146.5t-60.5 147.5t-146.5 61t-147.5 -61t-61.5 -147.5z" />
<glyph unicode="&#xb1;" horiz-adv-x="1705" d="M254 51v99h1198v-99h-1198zM254 723v98h551v348h98v-348h549v-98h-549v-348h-98v348h-551z" />
<glyph unicode="&#xb2;" horiz-adv-x="763" d="M88 582v84l340 295q86 74 126 126t40 115q0 80 -58.5 136.5t-150.5 56.5t-148.5 -56.5t-56.5 -150.5v-25h-92v13q0 133 86 216t219 83q121 0 207 -80t86 -199q0 -133 -149 -258l-324 -272h471v-84h-596z" />
<glyph unicode="&#xb3;" horiz-adv-x="763" d="M72 848h96v-8q0 -88 59.5 -144.5t145.5 -56.5q94 0 155.5 56.5t61.5 146.5q0 203 -254 202h-45v72q14 -2 41 -2q190 0 190 143q0 61 -41 100.5t-102 39.5q-147 0 -152 -148h-88q6 104 71.5 164t172.5 60q100 0 169 -65t69 -151q0 -100 -95 -161q160 -76 160 -246 q0 -119 -86 -202t-221 -83q-141 0 -223 75t-84 208z" />
<glyph unicode="&#xb4;" horiz-adv-x="1024" d="M387 1247l209 350h152l-269 -350h-92z" />
<glyph unicode="&#xb5;" horiz-adv-x="1110" d="M-111 -426l316 1491h139l-125 -592q-16 -76 -16 -139q0 -117 58 -180.5t167 -63.5q125 0 214 106.5t134 311.5l121 557h139l-164 -770q-23 -100 -22 -133q0 -66 68 -66q16 0 36 2l-20 -110q-39 -10 -86 -11q-137 0 -137 146v14q-88 -162 -299 -162q-188 0 -269 156 l-114 -557h-140z" />
<glyph unicode="&#xb6;" horiz-adv-x="1024" d="M84 1130q0 156 106.5 252.5t286.5 96.5h463v-70h-127v-1409h-82v1409h-188v-1409h-82v782q-174 8 -275.5 102t-101.5 246z" />
<glyph unicode="&#xb7;" horiz-adv-x="577" d="M197 729q0 39 26.5 66.5t65.5 27.5t66.5 -27.5t27.5 -66.5t-27.5 -65.5t-66.5 -26.5t-65.5 26.5t-26.5 65.5z" />
<glyph unicode="&#xb8;" horiz-adv-x="1024" d="M272 -342q164 -35 238 -35q129 0 129 90q0 104 -143 105q-31 0 -47 -2v184h63v-111h20q219 0 220 -172q0 -84 -58.5 -130t-169 -46t-252.5 39v78z" />
<glyph unicode="&#xb9;" horiz-adv-x="763" d="M178 1380v76h268v-874h-100v798h-168z" />
<glyph unicode="&#xba;" horiz-adv-x="931" d="M41 1071q0 170 125 290t293 120q182 0 307 -119t125 -283q0 -172 -123 -292.5t-301 -120.5q-182 0 -304 119.5t-122 285.5zM152 1071q0 -133 90 -222t225 -89q131 0 222 89t91 224q0 137 -92 225t-229 88q-125 0 -216 -89t-91 -226z" />
<glyph unicode="&#xbb;" horiz-adv-x="933" d="M133 229l248 320l-248 321h137l246 -321l-246 -320h-137zM438 229l246 320l-246 321h135l248 -321l-248 -320h-135z" />
<glyph unicode="&#xbc;" horiz-adv-x="1800" d="M170 1386v70h256v-815h-96v745h-160zM387 -29l905 1514h119l-903 -1514h-121zM1126 158v69l416 588h103v-588h100v-69h-100v-158h-89v158h-430zM1221 227h338l4 494z" />
<glyph unicode="&#xbd;" horiz-adv-x="1800" d="M170 1386v70h256v-815h-96v745h-160zM387 -29l905 1514h119l-903 -1514h-121zM1155 0v80l326 272q84 72 120.5 120t36.5 108q0 74 -55 127t-143 53q-90 0 -143.5 -53.5t-53.5 -141.5v-22h-88v12q0 125 82 202t209 77q115 0 197.5 -75t82.5 -186q0 -123 -143 -241 l-309 -252h450v-80h-569z" />
<glyph unicode="&#xbe;" horiz-adv-x="1800" d="M68 889h92v-6q0 -82 57 -135.5t139 -53.5q88 0 147.5 52.5t59.5 136.5q0 190 -244 190h-43v68q14 -2 41 -2q182 0 183 133q0 57 -40 94t-98 37q-68 0 -106.5 -36t-38.5 -101h-84q6 96 69.5 151.5t164.5 55.5q96 0 160.5 -60.5t64.5 -140.5q0 -92 -88 -152 q150 -70 149 -229q0 -111 -83 -188.5t-210 -77.5q-133 0 -211.5 69.5t-80.5 194.5zM387 -29l905 1514h119l-903 -1514h-121zM1126 158v69l416 588h103v-588h100v-69h-100v-158h-89v158h-430zM1221 227h338l4 494z" />
<glyph unicode="&#xbf;" horiz-adv-x="948" d="M45 399q0 33 3 63t11 56l15 46q6 19 21 42l23 34q7 11 28 34l28 28q6 6 31.5 29t30.5 27q78 72 113.5 139.5t37.5 161.5h143q0 -188 -153 -354l-63 -62q-46 -45 -63.5 -66.5t-35.5 -69.5t-18 -108q0 -133 71.5 -206.5t192.5 -73.5q129 0 201.5 84t78.5 241h148 q-2 -217 -123 -345t-313 -128q-182 0 -295 119t-113 309zM387 1190v266h143v-266h-143z" />
<glyph unicode="&#xc0;" horiz-adv-x="1222" d="M-51 0l565 1456h172l563 -1456h-153l-174 457h-648l-174 -457h-151zM324 588h548l-276 731zM362 1948h152l209 -351h-92z" />
<glyph unicode="&#xc1;" horiz-adv-x="1222" d="M-51 0l565 1456h172l563 -1456h-153l-174 457h-648l-174 -457h-151zM324 588h548l-276 731zM473 1597l209 351h152l-269 -351h-92z" />
<glyph unicode="&#xc2;" horiz-adv-x="1222" d="M-51 0l565 1456h172l563 -1456h-153l-174 457h-648l-174 -457h-151zM322 1597l200 351h152l200 -351h-92l-184 265l-184 -265h-92zM324 588h548l-276 731z" />
<glyph unicode="&#xc3;" horiz-adv-x="1222" d="M-51 0l565 1456h172l563 -1456h-153l-174 457h-648l-174 -457h-151zM309 1640q43 184 195 185q31 0 53 -8l96 -31q29 -10 56 -10q63 0 96 73h82q-51 -184 -191 -184q-29 0 -65 10l-96 31q-29 8 -54 8q-61 0 -92 -74h-80zM324 588h548l-276 731z" />
<glyph unicode="&#xc4;" horiz-adv-x="1222" d="M-51 0l565 1456h172l563 -1456h-153l-174 457h-648l-174 -457h-151zM324 588h548l-276 731zM342 1663v164h141v-164h-141zM711 1663v164h143v-164h-143z" />
<glyph unicode="&#xc5;" horiz-adv-x="1222" d="M-51 0l565 1456h172l563 -1456h-153l-174 457h-648l-174 -457h-151zM324 588h548l-276 731zM371 1743q0 96 66.5 162.5t162.5 66.5t162.5 -66.5t66.5 -162.5t-66.5 -163t-162.5 -67t-162.5 67t-66.5 163zM461 1742.5q0 -59.5 41 -100t100.5 -40.5t101 40.5t41.5 100 t-43 102.5t-100 43t-99 -43t-42 -102.5z" />
<glyph unicode="&#xc6;" horiz-adv-x="1810" d="M-135 0l1001 1456h824v-143h-613v-510h613v-144h-613v-518h613v-141h-756v483h-567l-330 -483h-172zM465 627h473l6 686h-16z" />
<glyph unicode="&#xc7;" horiz-adv-x="1540" d="M61 737q0 313 228 537q211 211 514 211q217 0 391 -105.5t274 -300.5h-172q-193 264 -495 264q-244 0 -416 -181t-172 -427q0 -266 173 -446t415 -180q305 0 485 251h170q-100 -186 -268 -287.5t-377 -101.5q-324 0 -537 219t-213 547zM561 -342q164 -35 238 -35 q129 0 129 90q0 104 -144 105q-31 0 -47 -2v184h64v-111h20q219 0 219 -172q0 -84 -58 -130t-169 -46t-252 39v78z" />
<glyph unicode="&#xc8;" horiz-adv-x="1028" d="M135 0v1456h756v-143h-612v-510h612v-144h-612v-518h612v-141h-756zM293 1948h151l209 -351h-92z" />
<glyph unicode="&#xc9;" horiz-adv-x="1028" d="M135 0v1456h756v-143h-612v-510h612v-144h-612v-518h612v-141h-756zM403 1597l209 351h152l-268 -351h-93z" />
<glyph unicode="&#xca;" horiz-adv-x="1028" d="M135 0v1456h756v-143h-612v-510h612v-144h-612v-518h612v-141h-756zM252 1597l201 351h151l201 -351h-92l-185 265l-184 -265h-92z" />
<glyph unicode="&#xcb;" horiz-adv-x="1028" d="M135 0v1456h756v-143h-612v-510h612v-144h-612v-518h612v-141h-756zM272 1663v164h142v-164h-142zM641 1663v164h143v-164h-143z" />
<glyph unicode="&#xcc;" horiz-adv-x="411" d="M-29 1948h152l209 -351h-92zM133 0v1456h143v-1456h-143z" />
<glyph unicode="&#xcd;" horiz-adv-x="411" d="M82 1597l209 351h151l-268 -351h-92zM133 0v1456h143v-1456h-143z" />
<glyph unicode="&#xce;" horiz-adv-x="411" d="M-70 1597l201 351h152l200 -351h-92l-184 265l-184 -265h-93zM133 0v1456h143v-1456h-143z" />
<glyph unicode="&#xcf;" horiz-adv-x="411" d="M-49 1663v164h141v-164h-141zM133 0v1456h143v-1456h-143zM319 1663v164h144v-164h-144z" />
<glyph unicode="&#xd0;" horiz-adv-x="1380" d="M-4 668v127h154v661h438q332 0 531.5 -204.5t199.5 -528.5q0 -184 -77 -339t-218 -259q-109 -80 -217.5 -102.5t-278.5 -22.5h-378v668h-154zM291 137h336q244 0 391 163t147 435q0 262 -148.5 422t-416.5 160h-309v-522h358v-127h-358v-531z" />
<glyph unicode="&#xd1;" horiz-adv-x="1366" d="M131 0v1456h172l799 -1282l-17 1282h142v-1456h-172l-799 1284l16 -1284h-141zM395 1640q43 184 195 185q31 0 53 -8l96 -31q29 -10 56 -10q63 0 96 73h82q-51 -184 -191 -184q-29 0 -65 10l-96 31q-29 8 -54 8q-61 0 -92 -74h-80z" />
<glyph unicode="&#xd2;" horiz-adv-x="1611" d="M61 737q0 313 228 537q215 211 514 211q305 0 522 -213q223 -219 223 -535q0 -309 -192 -520q-223 -246 -555 -246q-313 0 -526.5 220t-213.5 546zM211 735q0 -268 174 -447t426 -179q248 0 419 181t171 449q0 246 -175 426.5t-425 180.5q-207 0 -367 -136 q-102 -88 -162.5 -215t-60.5 -260zM571 1948h152l209 -351h-92z" />
<glyph unicode="&#xd3;" horiz-adv-x="1611" d="M61 737q0 313 228 537q215 211 514 211q305 0 522 -213q223 -219 223 -535q0 -309 -192 -520q-223 -246 -555 -246q-313 0 -526.5 220t-213.5 546zM211 735q0 -268 174 -447t426 -179q248 0 419 181t171 449q0 246 -175 426.5t-425 180.5q-207 0 -367 -136 q-102 -88 -162.5 -215t-60.5 -260zM682 1597l209 351h151l-268 -351h-92z" />
<glyph unicode="&#xd4;" horiz-adv-x="1611" d="M61 737q0 313 228 537q215 211 514 211q305 0 522 -213q223 -219 223 -535q0 -309 -192 -520q-223 -246 -555 -246q-313 0 -526.5 220t-213.5 546zM211 735q0 -268 174 -447t426 -179q248 0 419 181t171 449q0 246 -175 426.5t-425 180.5q-207 0 -367 -136 q-102 -88 -162.5 -215t-60.5 -260zM530 1597l201 351h152l200 -351h-92l-184 265l-184 -265h-93z" />
<glyph unicode="&#xd5;" horiz-adv-x="1611" d="M61 737q0 313 228 537q215 211 514 211q305 0 522 -213q223 -219 223 -535q0 -309 -192 -520q-223 -246 -555 -246q-313 0 -526.5 220t-213.5 546zM211 735q0 -268 174 -447t426 -179q248 0 419 181t171 449q0 246 -175 426.5t-425 180.5q-207 0 -367 -136 q-102 -88 -162.5 -215t-60.5 -260zM518 1640q43 184 195 185q31 0 53 -8l96 -31q30 -10 56 -10q63 0 96 73h82q-51 -184 -191 -184q-29 0 -65 10l-97 31q-29 8 -53 8q-61 0 -92 -74h-80z" />
<glyph unicode="&#xd6;" horiz-adv-x="1611" d="M61 737q0 313 228 537q215 211 514 211q305 0 522 -213q223 -219 223 -535q0 -309 -192 -520q-223 -246 -555 -246q-313 0 -526.5 220t-213.5 546zM211 735q0 -268 174 -447t426 -179q248 0 419 181t171 449q0 246 -175 426.5t-425 180.5q-207 0 -367 -136 q-102 -88 -162.5 -215t-60.5 -260zM551 1663v164h141v-164h-141zM920 1663v164h143v-164h-143z" />
<glyph unicode="&#xd7;" horiz-adv-x="1705" d="M305 129l481 481l-481 482l70 69l481 -481l481 481l70 -69l-481 -482l481 -481l-70 -70l-481 482l-481 -482z" />
<glyph unicode="&#xd8;" horiz-adv-x="1611" d="M63 739q0 311 228 535q215 211 522 211q240 0 428 -142l172 207l96 -75l-178 -213q217 -207 217 -525q0 -330 -215 -547t-530 -217q-229 0 -426 140l-207 -250l-94 78l207 247q-220 238 -220 551zM215 735q0 -264 162 -432l770 928q-154 115 -330 115q-258 0 -430 -181.5 t-172 -429.5zM469 223q164 -113 334 -112q254 0 426 181t172 443q0 236 -164 412z" />
<glyph unicode="&#xd9;" d="M113 530v926h143v-891v-30q0 -176 37 -254q39 -82 114.5 -129.5t170.5 -47.5q168 0 245.5 115t77.5 346v891h141v-926q0 -561 -454 -561q-246 0 -360.5 137t-114.5 424zM344 1948h152l209 -351h-93z" />
<glyph unicode="&#xda;" d="M113 530v926h143v-891v-30q0 -176 37 -254q39 -82 114.5 -129.5t170.5 -47.5q168 0 245.5 115t77.5 346v891h141v-926q0 -561 -454 -561q-246 0 -360.5 137t-114.5 424zM455 1597l209 351h151l-268 -351h-92z" />
<glyph unicode="&#xdb;" d="M113 530v926h143v-891v-30q0 -176 37 -254q39 -82 114.5 -129.5t170.5 -47.5q168 0 245.5 115t77.5 346v891h141v-926q0 -561 -454 -561q-246 0 -360.5 137t-114.5 424zM303 1597l201 351h151l201 -351h-92l-184 265l-185 -265h-92z" />
<glyph unicode="&#xdc;" d="M113 530v926h143v-891v-30q0 -176 37 -254q39 -82 114.5 -129.5t170.5 -47.5q168 0 245.5 115t77.5 346v891h141v-926q0 -561 -454 -561q-246 0 -360.5 137t-114.5 424zM324 1663v164h141v-164h-141zM692 1663v164h144v-164h-144z" />
<glyph unicode="&#xdd;" horiz-adv-x="980" d="M-49 1456h164l372 -756l377 756h160l-467 -921v-535h-141v537zM367 1597l208 351h152l-268 -351h-92z" />
<glyph unicode="&#xde;" horiz-adv-x="1034" d="M119 0v1456h143v-282h193q221 0 313 -54q94 -55 149.5 -151.5t55.5 -206.5q0 -193 -135.5 -312.5t-384.5 -119.5h-191v-330h-143zM262 477h211q342 0 342 279q0 150 -106 225q-33 23 -76 34t-75 13t-97 2h-199v-553z" />
<glyph unicode="&#xdf;" horiz-adv-x="1200" d="M115 0v965q0 254 100 379.5t313 125.5q188 0 304 -113.5t116 -287.5q0 -102 -40 -171t-109 -89q162 -37 251 -139.5t89 -255.5q0 -188 -130 -315.5t-325 -127.5q-309 0 -428 318v-289h-141zM256 358h139q80 -256 293 -256q123 0 212 86t89 201q0 297 -395 297h-90v115h6 q135 0 212 72.5t77 195.5q0 117 -78 191.5t-197 74.5q-123 0 -195.5 -75.5t-72.5 -206.5v-72v-623z" />
<glyph unicode="&#xe0;" horiz-adv-x="1290" d="M57 545q0 246 163 412.5t413 166.5q262 0 409 -200v176h138v-1100h-138v174q-66 -94 -178 -148.5t-243 -54.5q-244 0 -404 167t-160 407zM203 539q0 -186 126 -311.5t296 -125.5q164 0 290.5 131.5t126.5 323.5q0 176 -125.5 306t-287.5 130q-174 0 -300 -128.5 t-126 -325.5zM399 1597h152l209 -350h-92z" />
<glyph unicode="&#xe1;" horiz-adv-x="1290" d="M57 545q0 246 163 412.5t413 166.5q262 0 409 -200v176h138v-1100h-138v174q-66 -94 -178 -148.5t-243 -54.5q-244 0 -404 167t-160 407zM203 539q0 -186 126 -311.5t296 -125.5q164 0 290.5 131.5t126.5 323.5q0 176 -125.5 306t-287.5 130q-174 0 -300 -128.5 t-126 -325.5zM510 1247l209 350h151l-268 -350h-92z" />
<glyph unicode="&#xe2;" horiz-adv-x="1290" d="M57 545q0 246 163 412.5t413 166.5q262 0 409 -200v176h138v-1100h-138v174q-66 -94 -178 -148.5t-243 -54.5q-244 0 -404 167t-160 407zM203 539q0 -186 126 -311.5t296 -125.5q164 0 290.5 131.5t126.5 323.5q0 176 -125.5 306t-287.5 130q-174 0 -300 -128.5 t-126 -325.5zM358 1247l201 350h152l200 -350h-92l-184 264l-184 -264h-93z" />
<glyph unicode="&#xe3;" horiz-adv-x="1290" d="M57 545q0 246 163 412.5t413 166.5q262 0 409 -200v176h138v-1100h-138v174q-66 -94 -178 -148.5t-243 -54.5q-244 0 -404 167t-160 407zM203 539q0 -186 126 -311.5t296 -125.5q164 0 290.5 131.5t126.5 323.5q0 176 -125.5 306t-287.5 130q-174 0 -300 -128.5 t-126 -325.5zM346 1290q43 184 195 185q31 0 53 -9l96 -30q29 -10 55 -11q63 0 97 74h82q-51 -184 -191 -184q-29 0 -65 10l-97 31q-29 8 -53 8q-61 0 -92 -74h-80z" />
<glyph unicode="&#xe4;" horiz-adv-x="1290" d="M57 545q0 246 163 412.5t413 166.5q262 0 409 -200v176h138v-1100h-138v174q-66 -94 -178 -148.5t-243 -54.5q-244 0 -404 167t-160 407zM203 539q0 -186 126 -311.5t296 -125.5q164 0 290.5 131.5t126.5 323.5q0 176 -125.5 306t-287.5 130q-174 0 -300 -128.5 t-126 -325.5zM379 1313v164h141v-164h-141zM748 1313v164h143v-164h-143z" />
<glyph unicode="&#xe5;" horiz-adv-x="1290" d="M57 545q0 246 163 412.5t413 166.5q262 0 409 -200v176h138v-1100h-138v174q-66 -94 -178 -148.5t-243 -54.5q-244 0 -404 167t-160 407zM203 539q0 -186 126 -311.5t296 -125.5q164 0 290.5 131.5t126.5 323.5q0 176 -125.5 306t-287.5 130q-174 0 -300 -128.5 t-126 -325.5zM416 1411q0 96 66.5 162.5t162.5 66.5t164 -67.5t68 -161.5t-68 -161.5t-164 -67.5t-162.5 66.5t-66.5 162.5zM506 1413.5q0 -59.5 41 -101.5t100.5 -42t101.5 42t42 101q0 57 -43 100t-101 43q-59 0 -100 -41.5t-41 -101z" />
<glyph unicode="&#xe6;" horiz-adv-x="2228" d="M57 545q0 246 163 412.5t413 166.5q223 0 405 -182v158h142v-162q180 186 436 186q244 0 401.5 -168t157.5 -440v-14h-987q14 -178 132 -289t288 -111q123 0 221 62.5t153 179.5h158q-76 -180 -212 -277.5t-316 -97.5q-266 0 -432 185v-154h-142v154q-172 -184 -417 -185 q-244 0 -404 168t-160 408zM203 539q0 -186 126 -311.5t296 -125.5q164 0 290.5 131.5t126.5 323.5q0 178 -127 309t-286 131q-174 0 -300 -130.5t-126 -327.5zM1192 625h831q-37 178 -145.5 275t-267.5 97q-164 0 -275.5 -99t-142.5 -273z" />
<glyph unicode="&#xe7;" horiz-adv-x="1241" d="M57 547q0 244 167 413.5t405 169.5q178 0 315 -96t205 -272h-156q-129 236 -381 235q-168 0 -287.5 -128t-119.5 -320q0 -190 118.5 -317.5t295.5 -127.5q125 0 224 62.5t150 177.5h156q-63 -180 -200.5 -277.5t-323.5 -97.5q-242 0 -405 171t-163 407zM381 -342 q164 -35 238 -35q129 0 129 90q0 104 -144 105q-31 0 -47 -2v184h64v-111h20q219 0 219 -172q0 -84 -58.5 -130t-169 -46t-251.5 39v78z" />
<glyph unicode="&#xe8;" horiz-adv-x="1241" d="M53 551q0 250 161 414.5t417 164.5q246 0 403.5 -169.5t157.5 -444.5v-10h-993q14 -182 132 -292t290 -110q123 0 222 63.5t154 180.5h160q-76 -184 -214 -281.5t-318 -97.5q-244 0 -408 172t-164 410zM203 625h833q-80 373 -426 372q-160 0 -270 -100t-137 -272z M397 1597h152l209 -350h-92z" />
<glyph unicode="&#xe9;" horiz-adv-x="1241" d="M53 551q0 250 161 414.5t417 164.5q246 0 403.5 -169.5t157.5 -444.5v-10h-993q14 -182 132 -292t290 -110q123 0 222 63.5t154 180.5h160q-76 -184 -214 -281.5t-318 -97.5q-244 0 -408 172t-164 410zM203 625h833q-80 373 -426 372q-160 0 -270 -100t-137 -272z M508 1247l209 350h151l-268 -350h-92z" />
<glyph unicode="&#xea;" horiz-adv-x="1241" d="M53 551q0 250 161 414.5t417 164.5q246 0 403.5 -169.5t157.5 -444.5v-10h-993q14 -182 132 -292t290 -110q123 0 222 63.5t154 180.5h160q-76 -184 -214 -281.5t-318 -97.5q-244 0 -408 172t-164 410zM203 625h833q-80 373 -426 372q-160 0 -270 -100t-137 -272z M356 1247l201 350h152l200 -350h-92l-184 264l-184 -264h-93z" />
<glyph unicode="&#xeb;" horiz-adv-x="1241" d="M53 551q0 250 161 414.5t417 164.5q246 0 403.5 -169.5t157.5 -444.5v-10h-993q14 -182 132 -292t290 -110q123 0 222 63.5t154 180.5h160q-76 -184 -214 -281.5t-318 -97.5q-244 0 -408 172t-164 410zM203 625h833q-80 373 -426 372q-160 0 -270 -100t-137 -272z M377 1313v164h141v-164h-141zM745 1313v164h144v-164h-144z" />
<glyph unicode="&#xec;" horiz-adv-x="370" d="M-49 1597h151l209 -350h-92zM115 0v1100h141v-1100h-141z" />
<glyph unicode="&#xed;" horiz-adv-x="370" d="M61 1247l209 350h152l-268 -350h-93zM115 0v1100h141v-1100h-141z" />
<glyph unicode="&#xee;" horiz-adv-x="370" d="M-90 1247l201 350h151l201 -350h-92l-185 264l-184 -264h-92zM115 0v1100h141v-1100h-141z" />
<glyph unicode="&#xef;" horiz-adv-x="370" d="M-70 1313v164h142v-164h-142zM115 0v1100h141v-1100h-141zM299 1313v164h143v-164h-143z" />
<glyph unicode="&#xf0;" horiz-adv-x="1241" d="M53 510q0 223 167 383t392 160q190 0 371 -138q-68 184 -227 308l-269 -99l-36 82l223 84q-68 41 -160 86l43 92q145 -66 246 -131l287 103l34 -80l-237 -88q301 -279 301 -680q0 -285 -161 -453t-406 -168q-242 0 -405 161t-163 378zM203 518q0 -176 119.5 -295 t300.5 -119q178 0 297.5 120t119.5 306q0 172 -121.5 289t-306.5 117q-164 0 -286.5 -120t-122.5 -298z" />
<glyph unicode="&#xf1;" horiz-adv-x="1142" d="M113 0v1100h137v-125q129 147 346 147q252 0 365 -174q43 -68 57 -151.5t14 -221.5v-575h-139v616q0 193 -74 282t-239 89q-197 0 -283 -149q-23 -39 -33 -91.5t-12 -91.5t-2 -120v-535h-137zM295 1290q43 184 194 185q31 0 54 -9l96 -30q29 -10 55 -11q63 0 97 74h81 q-53 -184 -190 -184q-29 0 -66 10l-96 31q-29 8 -53 8q-61 0 -92 -74h-80z" />
<glyph unicode="&#xf2;" horiz-adv-x="1241" d="M53 549q0 244 167 415t392 171q242 0 409 -170t167 -402q0 -246 -164 -420t-401 -174q-242 0 -406 172t-164 408zM201 551q0 -190 120.5 -318.5t301.5 -128.5q176 0 296.5 128t120.5 321q0 197 -122.5 321.5t-307.5 124.5q-164 0 -286.5 -126.5t-122.5 -321.5zM395 1597 h152l209 -350h-92z" />
<glyph unicode="&#xf3;" horiz-adv-x="1241" d="M53 549q0 244 167 415t392 171q242 0 409 -170t167 -402q0 -246 -164 -420t-401 -174q-242 0 -406 172t-164 408zM201 551q0 -190 120.5 -318.5t301.5 -128.5q176 0 296.5 128t120.5 321q0 197 -122.5 321.5t-307.5 124.5q-164 0 -286.5 -126.5t-122.5 -321.5zM506 1247 l209 350h151l-268 -350h-92z" />
<glyph unicode="&#xf4;" horiz-adv-x="1241" d="M53 549q0 244 167 415t392 171q242 0 409 -170t167 -402q0 -246 -164 -420t-401 -174q-242 0 -406 172t-164 408zM201 551q0 -190 120.5 -318.5t301.5 -128.5q176 0 296.5 128t120.5 321q0 197 -122.5 321.5t-307.5 124.5q-164 0 -286.5 -126.5t-122.5 -321.5zM354 1247 l201 350h152l200 -350h-92l-184 264l-185 -264h-92z" />
<glyph unicode="&#xf5;" horiz-adv-x="1241" d="M53 549q0 244 167 415t392 171q242 0 409 -170t167 -402q0 -246 -164 -420t-401 -174q-242 0 -406 172t-164 408zM201 551q0 -190 120.5 -318.5t301.5 -128.5q176 0 296.5 128t120.5 321q0 197 -122.5 321.5t-307.5 124.5q-164 0 -286.5 -126.5t-122.5 -321.5zM342 1290 q43 184 195 185q31 0 53 -9l96 -30q29 -10 55 -11q63 0 97 74h82q-51 -184 -191 -184q-29 0 -65 10l-97 31q-29 8 -53 8q-61 0 -92 -74h-80z" />
<glyph unicode="&#xf6;" horiz-adv-x="1241" d="M53 549q0 244 167 415t392 171q242 0 409 -170t167 -402q0 -246 -164 -420t-401 -174q-242 0 -406 172t-164 408zM201 551q0 -190 120.5 -318.5t301.5 -128.5q176 0 296.5 128t120.5 321q0 197 -122.5 321.5t-307.5 124.5q-164 0 -286.5 -126.5t-122.5 -321.5zM375 1313 v164h141v-164h-141zM743 1313v164h144v-164h-144z" />
<glyph unicode="&#xf7;" horiz-adv-x="1705" d="M254 561v98h1198v-98h-1198zM748 258q0 45 31.5 76t74.5 31q45 0 76 -31t31 -76q0 -43 -31 -74.5t-76 -31.5t-75.5 30.5t-30.5 75.5zM748 963q0 45 31.5 76.5t74.5 31.5q45 0 76 -31.5t31 -76.5q0 -43 -31 -75t-76 -32t-75.5 31t-30.5 76z" />
<glyph unicode="&#xf8;" horiz-adv-x="1241" d="M31 -57l176 211q-154 164 -154 395q0 246 166 415t402 169q182 0 319 -101l168 201l92 -72l-172 -207q160 -164 160 -399q0 -240 -165 -413t-413 -173q-168 0 -317 105l-178 -211zM201 551q0 -166 94 -291l557 666q-86 74 -229 73q-176 0 -299 -125.5t-123 -322.5z M381 180q102 -76 227 -76q188 0 310 126t122 325q0 162 -98 295z" />
<glyph unicode="&#xf9;" horiz-adv-x="1142" d="M109 526v574h139v-584q0 -213 68.5 -312.5t244.5 -99.5q195 0 283 150q23 37 33 89t12 93t2 123v541h141v-1100h-141v119q-123 -147 -334 -148q-248 0 -348 134t-100 421zM330 1597h151l209 -350h-92z" />
<glyph unicode="&#xfa;" horiz-adv-x="1142" d="M109 526v574h139v-584q0 -213 68.5 -312.5t244.5 -99.5q195 0 283 150q23 37 33 89t12 93t2 123v541h141v-1100h-141v119q-123 -147 -334 -148q-248 0 -348 134t-100 421zM440 1247l209 350h152l-269 -350h-92z" />
<glyph unicode="&#xfb;" horiz-adv-x="1142" d="M109 526v574h139v-584q0 -213 68.5 -312.5t244.5 -99.5q195 0 283 150q23 37 33 89t12 93t2 123v541h141v-1100h-141v119q-123 -147 -334 -148q-248 0 -348 134t-100 421zM289 1247l200 350h152l201 -350h-92l-185 264l-184 -264h-92z" />
<glyph unicode="&#xfc;" horiz-adv-x="1142" d="M109 526v574h139v-584q0 -213 68.5 -312.5t244.5 -99.5q195 0 283 150q23 37 33 89t12 93t2 123v541h141v-1100h-141v119q-123 -147 -334 -148q-248 0 -348 134t-100 421zM309 1313v164h142v-164h-142zM678 1313v164h143v-164h-143z" />
<glyph unicode="&#xfd;" horiz-adv-x="944" d="M-33 1100h162l340 -893l356 893h164l-594 -1456h-151l147 358zM348 1247l209 350h152l-269 -350h-92z" />
<glyph unicode="&#xfe;" horiz-adv-x="1290" d="M109 -356v1812h143l-4 -536q59 92 170.5 148t238.5 56q248 0 412 -165.5t164 -399.5q0 -254 -160 -421t-405 -167q-276 0 -416 203v-240v-290h-143zM248 551q0 -184 126 -316.5t290 -132.5q170 0 295.5 125t125.5 312q0 199 -125.5 326.5t-300.5 127.5 q-164 0 -287.5 -131t-123.5 -311z" />
<glyph unicode="&#xff;" horiz-adv-x="944" d="M-33 1100h162l340 -893l356 893h164l-594 -1456h-151l147 358zM217 1313v164h141v-164h-141zM586 1313v164h143v-164h-143z" />
<glyph unicode="&#x152;" horiz-adv-x="2232" d="M61 737q0 313 228 537q215 211 514 211q375 0 590 -291v262h755v-143h-612v-510h612v-144h-612v-518h612v-141h-755v260q-242 -289 -592 -289q-313 0 -526.5 220t-213.5 546zM211 735q0 -268 174 -447t426 -179q248 0 419 181t171 449q0 246 -175 426.5t-425 180.5 q-207 0 -367 -136q-102 -88 -162.5 -215t-60.5 -260z" />
<glyph unicode="&#x153;" horiz-adv-x="2228" d="M53 549q0 246 167 415t407 169q156 0 283.5 -78t203.5 -221q82 143 214 221t286 78q244 0 402.5 -172.5t158.5 -454.5v-4h-987q14 -178 132 -288t288 -110q123 0 221 62.5t153 177.5h158q-74 -180 -213 -277.5t-325 -97.5q-322 0 -488 299q-158 -299 -491 -299 q-244 0 -407 171t-163 409zM201 551q0 -190 120.5 -318.5t301.5 -128.5q176 0 296.5 128t120.5 321q0 197 -122.5 321.5t-307.5 124.5q-164 0 -286.5 -126.5t-122.5 -321.5zM1192 625h831q-37 178 -145.5 276t-267.5 98q-164 0 -281 -103t-137 -271z" />
<glyph unicode="&#x178;" horiz-adv-x="980" d="M-49 1456h164l372 -756l377 756h160l-467 -921v-535h-141v537zM236 1663v164h141v-164h-141zM604 1663v164h144v-164h-144z" />
<glyph unicode="&#x2c6;" horiz-adv-x="1024" d="M236 1247l200 350h152l200 -350h-92l-184 264l-184 -264h-92z" />
<glyph unicode="&#x2dc;" horiz-adv-x="1024" d="M223 1290q43 184 195 185q31 0 53 -9l96 -30q29 -10 56 -11q63 0 96 74h82q-51 -184 -191 -184q-29 0 -65 10l-96 31q-29 8 -54 8q-61 0 -92 -74h-80z" />
<glyph unicode="&#x2013;" horiz-adv-x="1024" d="M0 492v112h1024v-112h-1024z" />
<glyph unicode="&#x2014;" horiz-adv-x="2048" d="M0 492v112h2048v-112h-2048z" />
<glyph unicode="&#x2018;" horiz-adv-x="397" d="M78 1456h141l156 -428h-144z" />
<glyph unicode="&#x2019;" horiz-adv-x="397" d="M25 1028l153 428h144l-156 -428h-141z" />
<glyph unicode="&#x201a;" horiz-adv-x="397" d="M25 -162l153 428h144l-156 -428h-141z" />
<glyph unicode="&#x201c;" horiz-adv-x="692" d="M78 1456h141l156 -428h-144zM371 1456h143l154 -428h-142z" />
<glyph unicode="&#x201d;" horiz-adv-x="692" d="M25 1028l153 428h144l-156 -428h-141zM317 1028l156 428h141l-153 -428h-144z" />
<glyph unicode="&#x201e;" horiz-adv-x="692" d="M25 -162l153 428h144l-156 -428h-141zM317 -162l156 428h141l-153 -428h-144z" />
<glyph unicode="&#x2022;" horiz-adv-x="1208" d="M307 762q0 123 87 209t210 86q121 0 208 -86t87 -209q0 -121 -87 -209t-210 -88t-209 87t-86 210z" />
<glyph unicode="&#x2026;" horiz-adv-x="2048" d="M270 0v266h144v-266h-144zM952 0v266h144v-266h-144zM1636 0v266h144v-266h-144z" />
<glyph unicode="&#x2039;" horiz-adv-x="630" d="M115 549l245 321h138l-248 -321l248 -320h-138z" />
<glyph unicode="&#x203a;" horiz-adv-x="630" d="M133 229l248 320l-248 321h137l246 -321l-246 -320h-137z" />
<glyph unicode="&#x2122;" horiz-adv-x="1705" d="M264 1397v57h430v-57h-172v-473h-82v473h-176zM821 924v530h117l166 -422l156 422h116v-530h-71v467l-177 -467h-49l-186 467v-467h-72z" />
<glyph unicode="&#xe000;" horiz-adv-x="1100" d="M0 1100h1100v-1100h-1100v1100z" />
<glyph unicode="&#xfb01;" horiz-adv-x="952" d="M25 977v123h141v30q0 174 88 258.5t270 84.5h13v-127q-127 -2 -178.5 -50.5t-51.5 -165.5v-30h230v-123h-228v-977h-137v977h-147zM674 0v1100h141v-1100h-141zM674 1229v227h141v-227h-141z" />
<glyph unicode="&#xfb02;" horiz-adv-x="952" d="M25 977v123h141v30q0 174 88 258.5t272 84.5h11v-127q-127 -2 -178.5 -50.5t-51.5 -165.5v-30h230v-123h-228v-977h-137v977h-147zM674 0v1456h141v-1456h-141z" />
<glyph unicode="&#xfb03;" horiz-adv-x="1497" d="M25 977v123h141v30q0 174 88 258.5t272 84.5h13v-127q-127 -2 -179.5 -50.5t-52.5 -165.5v-30h232v-123h-230v-977h-137v977h-147zM588 977v123h141v30q0 174 88 258.5t273 84.5h12v-127q-127 -2 -179.5 -50.5t-52.5 -165.5v-30h232v-123h-230v-977h-137v977h-147z M1241 0v1100h141v-1100h-141zM1241 1229v227h141v-227h-141z" />
<glyph unicode="&#xfb04;" horiz-adv-x="1497" d="M25 977v123h141v30q0 174 88 258.5t272 84.5h13v-127q-127 -2 -179.5 -50.5t-52.5 -165.5v-30h232v-123h-230v-977h-137v977h-147zM588 977v123h141v30q0 174 88 258.5t273 84.5h12v-127q-127 -2 -179.5 -50.5t-52.5 -165.5v-30h232v-123h-230v-977h-137v977h-147z M1241 0v1456h141v-1456h-141z" />
</font>
</defs>
</svg>
